<svg xmlns="http://www.w3.org/2000/svg" width="136.803" height="170.149" viewBox="0 0 136.803 170.149">
  <g id="Grupo_546" data-name="Grupo 546" transform="translate(-909.198 -1196)">
    <g id="Grupo_508" data-name="Grupo 508" transform="translate(-3740.806 -6181.667)">
      <path id="path748"
        d="M502.88-269.014c1.85-7.179,4.921-16.838,7.21-19.127a8.268,8.268,0,0,1,5.876-2.456,6.934,6.934,0,0,1,1.845.23,4.883,4.883,0,0,1,.568.148c.065.017.148.041.213.062a2.381,2.381,0,0,1,.547.189,1.508,1.508,0,0,1,.333.146c.234.105.464.23.693.357h.021a10.255,10.255,0,0,1,.88.609,5.481,5.481,0,0,1,.826.714,8.383,8.383,0,0,1,2.267,4.22v.043a8.288,8.288,0,0,1-2.267,7.538c-1.557,1.574-6.532,3.506-11.8,5.186-1.306.4-6.007,1.809-7.209,2.14"
        transform="translate(4166.281 7778.599)" fill="#116149" />
      <path id="path750"
        d="M516.5-288.666a6.877,6.877,0,0,0-4.887,2.045c-1.508,1.508-3.981,7.969-6.211,16.107,1.794-.531,3.985-1.189,4.809-1.443,8.493-2.708,10.674-4.284,11.221-4.833a6.892,6.892,0,0,0,1.89-6.274c-.011-.049-.017-.1-.024-.151a6.966,6.966,0,0,0-1.865-3.407,4.153,4.153,0,0,0-.641-.559,7.878,7.878,0,0,0-.695-.488c-.028-.013-.054-.028-.082-.043-.191-.105-.383-.211-.581-.3-.071-.024-.323-.142-.389-.174a1.085,1.085,0,0,0-.228-.075c-.026,0-.226-.065-.254-.073a3.819,3.819,0,0,0-.478-.125,5.752,5.752,0,0,0-1.587-.209Zm-13.085,21.583a1.4,1.4,0,0,1-.981-.4,1.407,1.407,0,0,1-.374-1.346c.708-2.744,4.4-16.587,7.575-19.768a9.652,9.652,0,0,1,6.865-2.867,8.3,8.3,0,0,1,2.217.284,5.311,5.311,0,0,1,.656.172l.181.056a3,3,0,0,1,.643.219,2.963,2.963,0,0,1,.527.245,5.316,5.316,0,0,1,.535.269,1.66,1.66,0,0,1,.213.11,11.14,11.14,0,0,1,1,.695,6.525,6.525,0,0,1,.97.847,9.75,9.75,0,0,1,2.62,4.9,1.248,1.248,0,0,1,.024.153,9.681,9.681,0,0,1-2.669,8.691c-.563.568-2.288,2.316-12.367,5.53-1.325.406-6.052,1.824-7.261,2.157a1.46,1.46,0,0,1-.372.049"
        transform="translate(4165.75 7778.067)" fill="#116149" />
      <path id="path752"
        d="M514.352-282.624a5.153,5.153,0,0,0-.693-.357,1.5,1.5,0,0,0-.333-.146,2.854,2.854,0,0,0-.546-.189c-.065-.021-.148-.045-.213-.062a.842.842,0,0,0-.206-.086,145.408,145.408,0,0,1,13.815-18.286,34.48,34.48,0,0,1,5.988,4.745,33.565,33.565,0,0,1,4.869,6.173,139.358,139.358,0,0,1-18.649,13.984.644.644,0,0,0-.037-.189v-.043a8.383,8.383,0,0,0-2.267-4.22,5.474,5.474,0,0,0-.826-.714,6.952,6.952,0,0,0-.88-.609h-.022"
        transform="translate(4172.093 7771.761)" fill="#116149" />
      <path id="path754"
        d="M515.5-283.364a.836.836,0,0,1,.108.056,8.072,8.072,0,0,1,1.062.731,6.544,6.544,0,0,1,.97.847,9.76,9.76,0,0,1,2.131,3.261,146.277,146.277,0,0,0,15.976-12.1,32.035,32.035,0,0,0-4.028-4.912,32.894,32.894,0,0,0-4.738-3.9,150.6,150.6,0,0,0-12,15.757,4.628,4.628,0,0,1,.516.26Zm3.428,8.444a1.412,1.412,0,0,1-.695-.185,1.385,1.385,0,0,1-.69-1.039,1.346,1.346,0,0,1-.043-.226,6.979,6.979,0,0,0-1.867-3.413,4.15,4.15,0,0,0-.641-.559,7,7,0,0,0-.658-.473,1.351,1.351,0,0,1-.191-.1,3.5,3.5,0,0,0-.508-.256c-.047-.015-.282-.125-.327-.146a1.563,1.563,0,0,0-.29-.1c-.026,0-.226-.065-.254-.073a1.644,1.644,0,0,1-.417-.185,1.229,1.229,0,0,1-.822-.8,1.337,1.337,0,0,1,.185-1.179,147.04,147.04,0,0,1,13.954-18.477,1.4,1.4,0,0,1,1.8-.267,36.072,36.072,0,0,1,6.229,4.938,34.885,34.885,0,0,1,5.074,6.431,1.4,1.4,0,0,1-.277,1.789,141.075,141.075,0,0,1-18.856,14.131,1.379,1.379,0,0,1-.708.194"
        transform="translate(4171.542 7771.229)" fill="#116149" />
      <path id="path756"
        d="M526.912-281.611a34.479,34.479,0,0,0-5.988-4.745c11.042-12.35,23.684-24.777,37.292-34.06,8-5.42,11.846-6.448,13.294-6.448a1,1,0,0,1,.65.146c.4.4.48,3.9-6.3,13.924a206.3,206.3,0,0,1-15.9,19.486c-.884.964-7,7.5-7.9,8.461-3.467,3.487-6.7,6.173-10.287,9.408a33.568,33.568,0,0,0-4.869-6.173"
        transform="translate(4177.344 7756.365)" fill="#5ae4a7" />
      <path id="path758"
        d="M523.58-286.094a35.3,35.3,0,0,1,4.85,4.026,35.02,35.02,0,0,1,4.168,5.031c.6-.533,1.187-1.054,1.77-1.57,2.463-2.174,4.79-4.228,7.24-6.691l.7-.746c1.895-2.026,6.411-6.857,7.162-7.674a202.479,202.479,0,0,0,15.772-19.331c4.663-6.893,5.826-10.371,6.11-11.791-1.486.288-4.947,1.463-11.818,6.115-11.376,7.76-23.149,18.445-35.95,32.632Zm8.732,12.586a1.589,1.589,0,0,1-.2-.015,1.4,1.4,0,0,1-.991-.652,31.972,31.972,0,0,0-4.667-5.915,33.185,33.185,0,0,0-5.743-4.553,1.392,1.392,0,0,1-.639-.989,1.39,1.39,0,0,1,.342-1.125c13.376-14.957,25.657-26.171,37.546-34.281,8.594-5.824,12.511-6.693,14.081-6.693a2.209,2.209,0,0,1,1.639.557c1.676,1.678-.615,7.545-6.13,15.7-4.286,6.3-11.074,14.154-16.013,19.639-.764.828-5.291,5.672-7.19,7.7l-.727.774c-2.547,2.562-4.9,4.644-7.4,6.85-.972.856-1.957,1.727-2.97,2.641a1.4,1.4,0,0,1-.938.361"
        transform="translate(4176.813 7755.833)" fill="#116149" />
      <path id="path760"
        d="M494.432-358.13H623.295a2.451,2.451,0,0,1,2.583,2.312v36.155H623.17l-33.7-.417-94.89-1.2h-2.708v-34.539a2.444,2.444,0,0,1,2.562-2.312"
        transform="translate(4159.532 7737.196)" fill="#e6f6ed" />
      <path id="path762"
        d="M493.8-322.145h1.308l129.9,1.615v-34.757a1.075,1.075,0,0,0-1.185-.912H494.964a1.074,1.074,0,0,0-1.161.912Zm132.607,4.413H623.7l-131.3-1.615a1.4,1.4,0,0,1-1.4-1.4v-34.539a3.844,3.844,0,0,1,3.96-3.71H623.826a3.857,3.857,0,0,1,3.981,3.71v36.155a1.4,1.4,0,0,1-1.4,1.4"
        transform="translate(4159 7736.664)" fill="#116149" />
      <path id="path764"
        d="M516.839-260.743c-2.288,2.288-5.36,11.948-7.21,19.127H491.871v-93.669h2.708l94.89,1.2-.146,12.386c-1.447,0-5.293,1.028-13.294,6.448-13.608,9.283-26.25,21.71-37.292,34.06a145.409,145.409,0,0,0-13.814,18.286.844.844,0,0,1,.206.086,4.89,4.89,0,0,0-.568-.148,6.934,6.934,0,0,0-1.845-.23,8.269,8.269,0,0,0-5.876,2.456"
        transform="translate(4159.532 7751.202)" fill="#e6f6ed" />
      <path id="path766"
        d="M493.8-242.482h15.281c1.121-4.2,4.418-15.836,7.3-18.718a9.653,9.653,0,0,1,6.865-2.867,8.939,8.939,0,0,1,1.529.129,152.652,152.652,0,0,1,13.436-17.639c13.391-14.974,25.672-26.188,37.561-34.3,6.723-4.555,10.584-6.08,12.7-6.528l.118-9.773L493.8-333.353Zm16.359,2.8H492.4a1.4,1.4,0,0,1-1.4-1.4v-93.669a1.4,1.4,0,0,1,1.4-1.4h2.708l94.908,1.2a1.4,1.4,0,0,1,1.383,1.417l-.148,12.384a1.4,1.4,0,0,1-1.4,1.383c-.559,0-3.788.3-12.511,6.207-11.7,7.979-23.811,19.047-37.032,33.834a148.168,148.168,0,0,0-13.251,17.415,1.407,1.407,0,0,1-.146.643,1.4,1.4,0,0,1-1.714.7,2.69,2.69,0,0,0-.366-.092,6.606,6.606,0,0,0-6.474,1.837c-1.65,1.652-4.465,9.253-6.844,18.488a1.4,1.4,0,0,1-1.355,1.05"
        transform="translate(4159 7750.67)" fill="#116149" />
      <path id="path768"
        d="M491.871-207.549v-34.522H509.63c1.2-.331,5.9-1.74,7.209-2.14,5.269-1.68,10.244-3.611,11.8-5.186a8.288,8.288,0,0,0,2.267-7.539.645.645,0,0,1,.036.189,139.36,139.36,0,0,0,18.65-13.984c3.587-3.235,6.82-5.921,10.287-9.408.9-.966,7.014-7.5,7.9-8.461a206.3,206.3,0,0,0,15.9-19.486c6.777-10.021,6.7-13.526,6.3-13.924a1,1,0,0,0-.65-.146l.146-12.386,33.7.417h2.708v126.576a2.463,2.463,0,0,1-2.583,2.31H494.432a2.457,2.457,0,0,1-2.562-2.31"
        transform="translate(4159.532 7751.657)" fill="#e6f6ed" />
      <path id="path770"
        d="M493.8-240.14v33.124a1.089,1.089,0,0,0,1.161.912H623.826a1.091,1.091,0,0,0,1.185-.912V-332.192H623.7l-32.318-.4-.12,9.939a1.919,1.919,0,0,1,.23.189c1.676,1.678-.615,7.545-6.13,15.7-4.287,6.3-11.074,14.154-16.013,19.639-.763.828-5.293,5.674-7.192,7.706l-.725.772c-2.547,2.562-4.9,4.644-7.4,6.85-.972.856-1.957,1.727-2.97,2.641a147.319,147.319,0,0,1-18.084,13.679,9.685,9.685,0,0,1-2.818,7.605c-.563.568-2.288,2.316-12.367,5.53-1.325.406-6.052,1.824-7.261,2.157a1.449,1.449,0,0,1-.372.049Zm130.023,36.832H494.964a3.844,3.844,0,0,1-3.96-3.708v-34.522a1.4,1.4,0,0,1,1.4-1.4H509.97c1.424-.4,5.749-1.7,6.988-2.078,8.493-2.708,10.674-4.284,11.221-4.833a6.892,6.892,0,0,0,1.89-6.274,1.4,1.4,0,0,1,1.007-1.632,1.486,1.486,0,0,1,.331-.049,142.988,142.988,0,0,0,17.8-13.453c1-.9,1.992-1.779,2.97-2.643,2.463-2.174,4.79-4.228,7.24-6.691l.7-.746c1.895-2.024,6.412-6.855,7.162-7.674a202.527,202.527,0,0,0,15.772-19.331c5.011-7.407,5.981-10.872,6.16-12.074a1.285,1.285,0,0,1-.3-.222,1.467,1.467,0,0,1-.458-1l.148-12.386a1.408,1.408,0,0,1,.422-.983,1.354,1.354,0,0,1,.994-.4l36.391.419a1.4,1.4,0,0,1,1.4,1.4v126.576a3.857,3.857,0,0,1-3.981,3.708"
        transform="translate(4159 7751.124)" fill="#116149" />
      <path id="path772"
        d="M492.4-263.091a1.4,1.4,0,0,1-1.4-1.4v-28.072a1.4,1.4,0,0,1,1.4-1.4,1.4,1.4,0,0,1,1.4,1.4v28.072a1.4,1.4,0,0,1-1.4,1.4"
        transform="translate(4159 7776.536)" fill="#116149" />
      <path id="path774"
        d="M623.826-188.848H607.131a1.4,1.4,0,0,1-1.4-1.4,1.4,1.4,0,0,1,1.4-1.4h16.694a1.091,1.091,0,0,0,1.185-.912V-355.286a1.075,1.075,0,0,0-1.185-.912H494.964a1.073,1.073,0,0,0-1.161.912v102.595a1.4,1.4,0,0,1-1.4,1.4,1.4,1.4,0,0,1-1.4-1.4V-355.286a3.844,3.844,0,0,1,3.96-3.71H623.826a3.857,3.857,0,0,1,3.981,3.71v162.731a3.856,3.856,0,0,1-3.981,3.708"
        transform="translate(4159 7736.664)" fill="#116149" />
      <path id="path776"
        d="M607.132-239.389H494.964A3.844,3.844,0,0,1,491-243.1v-32.064a1.4,1.4,0,0,1,1.4-1.4,1.4,1.4,0,0,1,1.4,1.4V-243.1a1.089,1.089,0,0,0,1.161.912H607.132a1.4,1.4,0,0,1,1.4,1.4,1.4,1.4,0,0,1-1.4,1.4"
        transform="translate(4159 7787.206)" fill="#116149" />
      <path id="path778"
        d="M622.672-331.738h-.017l-128.591-1.615a1.4,1.4,0,0,1-1.381-1.417,1.4,1.4,0,0,1,1.4-1.381h.017l128.591,1.615a1.4,1.4,0,0,1,1.383,1.415,1.4,1.4,0,0,1-1.4,1.383"
        transform="translate(4160.029 7750.67)" fill="#116149" />
      <path id="path780"
        d="M547.4-343.569a1.4,1.4,0,0,1-1.4-1.372,1.394,1.394,0,0,1,1.37-1.424l16.021-.316a.122.122,0,0,1,.028,0,1.4,1.4,0,0,1,1.4,1.372,1.4,1.4,0,0,1-1.37,1.424l-16.021.316a.121.121,0,0,1-.028,0"
        transform="translate(4192.718 7744.213)" fill="#116149" />
      <path id="path782"
        d="M560.66-343.689H508.986a1.4,1.4,0,0,1-1.4-1.4,1.4,1.4,0,0,1,1.4-1.4H560.66a1.4,1.4,0,0,1,1.4,1.4,1.4,1.4,0,0,1-1.4,1.4"
        transform="translate(4169.166 7744.333)" fill="#116149" />
      <path id="path784"
        d="M528.186-289.478a1.391,1.391,0,0,1-1.037-.462,1.4,1.4,0,0,1,.1-1.974c1.022-.921,2.013-1.8,2.992-2.663,2.463-2.174,4.79-4.228,7.24-6.691a1.4,1.4,0,0,1,1.977-.006,1.4,1.4,0,0,1,.006,1.977c-2.516,2.529-4.874,4.611-7.371,6.818-.972.856-1.957,1.727-2.97,2.641a1.4,1.4,0,0,1-.938.361"
        transform="translate(4180.939 7771.803)" fill="#116149" />
      <path id="path786"
        d="M534.563-295.67a1.392,1.392,0,0,1-.953-.379,1.4,1.4,0,0,1-.067-1.974l.733-.785c1.9-2.03,6.405-6.848,7.154-7.665a1.4,1.4,0,0,1,1.977-.086,1.4,1.4,0,0,1,.086,1.977c-.753.817-5.269,5.65-7.175,7.685l-.733.783a1.387,1.387,0,0,1-1.022.445"
        transform="translate(4184.849 7768.587)" fill="#116149" />
      <path id="path788"
        d="M521.455-284.425a1.393,1.393,0,0,1-.931-.357,1.4,1.4,0,0,1-.11-1.974c13.376-14.957,25.657-26.171,37.546-34.281,8.595-5.824,12.511-6.693,14.081-6.693a2.209,2.209,0,0,1,1.639.557c1.675,1.678-.615,7.545-6.13,15.7-4.286,6.3-11.074,14.154-16.013,19.639a1.4,1.4,0,0,1-1.974.105,1.4,1.4,0,0,1-.105-1.974,202.667,202.667,0,0,0,15.78-19.342c4.663-6.893,5.827-10.371,6.11-11.791-1.486.288-4.947,1.463-11.819,6.115-11.7,7.979-23.811,19.047-37.032,33.834a1.39,1.39,0,0,1-1.043.467"
        transform="translate(4176.813 7755.833)" fill="#116149" />
      <path id="path790"
        d="M513.7-288.2a1.377,1.377,0,0,1-.624-.148,1.091,1.091,0,0,0-.228-.075,1.4,1.4,0,0,1-1.056-1.671,1.4,1.4,0,0,1,1.669-1.056,3.713,3.713,0,0,1,.867.3,1.4,1.4,0,0,1,.624,1.875,1.4,1.4,0,0,1-1.252.772"
        transform="translate(4171.721 7778.236)" fill="#116149" />
      <path id="path792"
        d="M514.388-287.829a1.39,1.39,0,0,1-.68-.179c-.191-.105-.383-.211-.581-.3a1.4,1.4,0,0,1-.708-1.848,1.4,1.4,0,0,1,1.848-.708c.273.123.54.265.806.415a1.4,1.4,0,0,1,.538,1.9,1.4,1.4,0,0,1-1.224.716"
        transform="translate(4172.055 7778.363)" fill="#116149" />
      <path id="path794"
        d="M515.019-287.354a1.39,1.39,0,0,1-.871-.308,8.581,8.581,0,0,0-.761-.523,1.4,1.4,0,0,1-.426-1.931,1.4,1.4,0,0,1,1.931-.426,11.126,11.126,0,0,1,1,.695,1.4,1.4,0,0,1,.221,1.966,1.392,1.392,0,0,1-1.093.527"
        transform="translate(4172.327 7778.499)" fill="#116149" />
      <path id="path796"
        d="M518.906-274.92a1.412,1.412,0,0,1-.695-.185,1.385,1.385,0,0,1-.69-1.039,1.4,1.4,0,0,1,.914-1.686,1.408,1.408,0,0,1,.394-.071,139.337,139.337,0,0,0,16.9-12.672,32.054,32.054,0,0,0-4.028-4.912,32.781,32.781,0,0,0-4.738-3.9,145.016,145.016,0,0,0-12.468,16.507,1.412,1.412,0,0,1-.23.792,1.4,1.4,0,0,1-1.811.477,1.475,1.475,0,0,1-.843-.837,1.405,1.405,0,0,1,.082-1.217,147.038,147.038,0,0,1,13.954-18.477,1.4,1.4,0,0,1,1.8-.267,36.075,36.075,0,0,1,6.229,4.938,34.891,34.891,0,0,1,5.074,6.431,1.4,1.4,0,0,1-.277,1.789,141.083,141.083,0,0,1-18.856,14.131,1.38,1.38,0,0,1-.708.194"
        transform="translate(4171.57 7771.229)" fill="#116149" />
      <path id="path798"
        d="M516.5-288.666a6.877,6.877,0,0,0-4.887,2.045c-1.508,1.508-3.981,7.969-6.211,16.107,1.794-.531,3.985-1.189,4.809-1.443,8.493-2.708,10.674-4.284,11.221-4.833a6.892,6.892,0,0,0,1.89-6.274c-.011-.049-.017-.1-.024-.151a6.966,6.966,0,0,0-1.865-3.407,4.153,4.153,0,0,0-.641-.559,7.006,7.006,0,0,0-.658-.473,1.334,1.334,0,0,1-.191-.1,3.506,3.506,0,0,0-.508-.256c-.047-.015-.282-.125-.327-.146a1.569,1.569,0,0,0-.29-.1c-.026,0-.226-.065-.254-.073a3.775,3.775,0,0,0-.477-.125A5.751,5.751,0,0,0,516.5-288.666Zm-13.085,21.583a1.4,1.4,0,0,1-.981-.4,1.407,1.407,0,0,1-.374-1.346c.708-2.744,4.4-16.587,7.575-19.768a9.652,9.652,0,0,1,6.865-2.867,8.3,8.3,0,0,1,2.217.284,5.311,5.311,0,0,1,.656.172l.181.056a3.354,3.354,0,0,1,.68.239,2.163,2.163,0,0,1,.49.226,4.309,4.309,0,0,1,.576.286.853.853,0,0,1,.107.056,8.106,8.106,0,0,1,1.063.731,6.532,6.532,0,0,1,.97.847,9.751,9.751,0,0,1,2.62,4.9,1.245,1.245,0,0,1,.024.153,9.681,9.681,0,0,1-2.669,8.691c-.563.568-2.288,2.316-12.367,5.53-1.325.406-6.052,1.824-7.261,2.157a1.463,1.463,0,0,1-.372.049"
        transform="translate(4165.75 7778.067)" fill="#116149" />
      <path id="path800"
        d="M560.077-278.2a1.4,1.4,0,0,1-1.4-1.4v-6.887a1.4,1.4,0,0,1,1.4-1.4,1.4,1.4,0,0,1,1.4,1.4v6.887a1.4,1.4,0,0,1-1.4,1.4"
        transform="translate(4200.491 7780.262)" fill="#116149" />
      <path id="path802"
        d="M581.329-250.97a14.585,14.585,0,0,1-9.422-3.271,10.568,10.568,0,0,1-4.067-8.186v-6.614c0-1.02-1.138-1.878-2.488-1.878a2.828,2.828,0,0,0-1.833.647,1.588,1.588,0,0,0-.673,1.23,10.549,10.549,0,0,1-4.037,8.175,14.793,14.793,0,0,1-9.436,3.261,14.794,14.794,0,0,1-9.437-3.261,10.6,10.6,0,0,1-4.037-8.175,1.552,1.552,0,0,0-.624-1.213,3.044,3.044,0,0,0-3.727-.013,1.642,1.642,0,0,0-.66,1.226,10.584,10.584,0,0,1-4.009,8.171,14.907,14.907,0,0,1-9.442,3.265c-3.624,0-6.994-1.757-10.018-5.224a23.36,23.36,0,0,1-2.966-4.233,1.4,1.4,0,0,1,.675-1.858,1.4,1.4,0,0,1,1.852.662,21.192,21.192,0,0,0,2.542,3.587c2.473,2.833,5.136,4.267,7.915,4.267a12.092,12.092,0,0,0,7.661-2.622,7.826,7.826,0,0,0,2.992-6.016,4.344,4.344,0,0,1,1.658-3.362,5.9,5.9,0,0,1,7.328.011,4.325,4.325,0,0,1,1.622,3.351,7.849,7.849,0,0,0,3.026,6.024,11.984,11.984,0,0,0,7.65,2.613,11.992,11.992,0,0,0,7.655-2.617,7.8,7.8,0,0,0,3.02-6.02,4.343,4.343,0,0,1,1.667-3.366,5.567,5.567,0,0,1,3.637-1.31c2.917,0,5.287,2.1,5.287,4.676v6.614a7.837,7.837,0,0,0,3.058,6.039,11.811,11.811,0,0,0,7.633,2.62c5.887,0,10.677-3.884,10.677-8.659v-17.028a1.4,1.4,0,0,1,1.4-1.4,1.4,1.4,0,0,1,1.4,1.4v17.028c0,6.317-6.046,11.457-13.475,11.457"
        transform="translate(4167.164 7784.572)" fill="#116149" />
    </g>
  </g>
</svg>