<svg xmlns="http://www.w3.org/2000/svg" width="235.032" height="158.389" viewBox="0 0 235.032 158.389">
  <g id="Grupo_485" data-name="Grupo 485" transform="translate(-1333 -1347)">
    <g id="Grupo_311" data-name="Grupo 311" transform="translate(1333 1347)">
      <path id="Trazado_1153" data-name="Trazado 1153"
        d="M153.708,872.023c1.562-2.69,1.923-4.465,4.3-7.077a132.716,132.716,0,0,1,12.83-12.76,21.432,21.432,0,0,1,9.11-4.081c2.5-.526,5.333.389,7.988.85,4.048.7,6.466-.825,7.4-4.848.606-2.611,1.883-5.172,1.934-7.776.04-2.028-.978-5.607-2.161-5.9-12.336-3-16.276-11.849-17.16-23.125a4.144,4.144,0,0,0-.494-1.941c-5.333-7.9-2.977-14.74,2.973-20.967,5.971-6.245.087-9.213-3.291-13.105-3.568-4.113-7.083-6.119-11.737-1.556-6.029,5.906-12.578,8.161-20.411,3.054a11.847,11.847,0,0,0-6.426-1.768c-9.532.263-14.894-4.574-17.474-13.3-2.775-9.385-8.966-3.972-14.169-3.281-5.805.771-6.834,4.2-5.65,9.133,1.822,7.588,1.155,14.132-6.715,18.353a15.155,15.155,0,0,0-5.744,5.6c-4.752,8.363-11.611,10.2-20.544,8.114-2.082-.49-5.74.576-6.9,2.2-6.051,8.482-4.3,15.177,5.181,18.994,6.224,2.5,9.114,6.393,9.648,12.951a30.421,30.421,0,0,0,3.024,11.589c3.085,5.805,2.508,10.552-1.753,15.284a19.524,19.524,0,0,0-3.789,5.521c-.649,1.621-1.017,4.074-.242,5.431,5.65,9.853,10.882,10.9,20.064,4.584,3.424-2.356,6.448-5.186,11.564-3.094,5.744,2.348,12.137,3.087,17.95,5.3a24.212,24.212,0,0,1,8.526,6.245c1.743,1.865,2.446,4.739,3.475,7.224,1.541,3.7,3.655,4.848,7.894,3.58,11.21-3.357,13.566-1.729,10.813-14.842A39.078,39.078,0,0,1,153.708,872.023Z"
        transform="translate(-17.081 -734.057)" fill="#ceeddb" fill-rule="evenodd" opacity="0.5" />
      <path id="Trazado_1152" data-name="Trazado 1152"
        d="M189.828,865.6c-9.735-.222-18.829,8.951-18.618,18.778.238,11.115-3.758,16.546-14.29,19.422-2.45.668-4.9,1.356-7.363,1.973-9.544,2.4-16.727-.865-21.115-9.575-4.566-9.074-17.4-12.7-25.633-7.241-8.641,5.724-16.062,5.036-23.511-2.218-2.13-2.075-4.249-4.167-6.3-6.324-6.535-6.873-7.179-14.563-1.935-22.55,5.564-8.487,2.232-21.268-6.709-25.712-8.842-4.4-12.26-11.517-9.973-20.969.794-3.291,1.659-6.573,2.688-9.8,2.665-8.351,8.3-12.352,17.1-12.31,12.362.065,20.638-8.021,20.529-20.052-.085-9.432,4.1-15.176,13.077-17.84,2.842-.842,5.724-1.55,8.6-2.273,9.558-2.392,16.706.872,21.1,9.612,4.559,9.067,17.432,12.675,25.667,7.2,8.569-5.7,16.055-4.985,23.5,2.266q2.975,2.888,5.861,5.861c7.138,7.377,7.939,14.962,1.84,23.459-2.726,3.8-4.007,7.159-1.649,11.527.879,1.626.624,3.881,1.554,5.455,1.578,2.671,3.159,6.034,5.663,7.35,11.357,5.966,14.175,11.687,10.883,24.322q-.639,2.458-1.3,4.913C206.49,862.018,201.359,865.862,189.828,865.6Zm-32.39,8.941c1.475-2.545,1.816-4.225,4.062-6.7a125.421,125.421,0,0,1,12.116-12.072,20.212,20.212,0,0,1,8.6-3.86c2.358-.5,5.036.368,7.544.8,3.823.661,6.106-.78,6.992-4.586.572-2.47,1.779-4.893,1.826-7.356.037-1.918-.923-5.3-2.041-5.578-11.65-2.838-15.37-11.21-16.205-21.879a3.927,3.927,0,0,0-.467-1.837c-5.036-7.472-2.811-13.946,2.808-19.837,5.639-5.908.082-8.716-3.107-12.4-3.37-3.891-6.689-5.789-11.084-1.472-5.694,5.588-11.878,7.721-19.275,2.89a11.178,11.178,0,0,0-6.068-1.673c-9,.249-14.065-4.327-16.5-12.583-2.62-8.879-8.467-3.758-13.381-3.1-5.482.729-6.453,3.976-5.336,8.641,1.721,7.179,1.09,13.371-6.341,17.364a14.322,14.322,0,0,0-5.424,5.295c-4.487,7.912-10.965,9.65-19.4,7.677-1.966-.463-5.421.545-6.511,2.078-5.714,8.025-4.058,14.359,4.893,17.97,5.878,2.368,8.607,6.048,9.111,12.253A28.824,28.824,0,0,0,87.1,845.544c2.913,5.492,2.368,9.983-1.656,14.461a18.467,18.467,0,0,0-3.578,5.223c-.613,1.533-.961,3.854-.228,5.138,5.336,9.322,10.277,10.314,18.948,4.337,3.234-2.228,6.089-4.907,10.921-2.927,5.424,2.222,11.462,2.92,16.951,5.016a22.87,22.87,0,0,1,8.052,5.908c1.646,1.765,2.31,4.484,3.281,6.835,1.455,3.5,3.452,4.587,7.455,3.387,10.587-3.176,12.812-1.636,10.212-14.042A37.039,37.039,0,0,1,157.438,874.54Z"
        transform="translate(-53.691 -748.148)" fill="#116149" fill-rule="evenodd" />
      <path id="Trazado_1154" data-name="Trazado 1154"
        d="M99.328,824.808c-16.979.2-31.191-13.711-31.559-30.9C67.4,776.8,81.94,762.11,99.167,762.2a31.305,31.305,0,0,1,.16,62.61ZM117.09,793.6A18.01,18.01,0,1,0,99,811.543,17.626,17.626,0,0,0,117.09,793.6Z"
        transform="translate(-20.121 -714.556)" fill="#116149" fill-rule="evenodd" />
      <path id="Trazado_1155" data-name="Trazado 1155"
        d="M151.432,332.726a6.439,6.439,0,0,1,6.44-6.44l7.012-.018c1.427,0,2.834.008,4.237.028h0c2.877,0,3.619-.974,4.194-2.058.621-1.172,1.036-2.419-.685-4.8q-6.039-8.373-12.045-16.761-7.855-10.958-15.749-21.887c-1.471-2.03-3.052-3.241-4.235-3.241s-2.774,1.221-4.245,3.264q-5.919,8.23-11.818,16.478-7.871,11-15.775,21.967c-1.819,2.519-1.45,3.748-.871,4.884.693,1.355,1.566,2.141,4,2.141l.278,0c1.43-.039,2.862-.052,4.309-.052l6.9.028a6.44,6.44,0,0,1,6.44,6.44v3.748c0,2.666.015,6.448.033,10.783.054,12.849.131,30.45-.175,38.425-.175,4.66.783,5.425,2.491,6.38a31.751,31.751,0,0,1,6.4,5.072c.592.566,1.185,1.131,1.793,1.667l.149.129a49.616,49.616,0,0,1,7.893-6.378c2.493-1.54,3.346-2.916,3.161-7.576-.34-8.57-.25-26.975-.18-40.411C151.411,339.881,151.432,335.755,151.432,332.726Z"
        transform="translate(61.176 -260.419)" fill="#116149" fill-rule="evenodd" />
    </g>
  </g>
</svg>