<svg xmlns="http://www.w3.org/2000/svg" width="160.601" height="180.021" viewBox="0 0 160.601 180.021">
  <g id="Grupo_545" data-name="Grupo 545" transform="translate(-1289.699 -1186.127)">
    <path id="path588"
      d="M393-18.978c-4.756,7.464-9.685,11.244-14.618,11.244h-.18c-6.6-.091-12.509-7.157-14.7-10.58V-166.964c3.329-9.776,8-15.574,13.931-17.283,7.864-2.312,15.995,3.331,17.727,4.642,6.331,10.286,13.4,18.375,20.949,24.037,11.13,8.308,14.423,16.887,15.331,22.173-.89-.621-1.734-1.265-2.71-1.82l-1.374-.38a2.828,2.828,0,0,0-2.421,1.422,2.741,2.741,0,0,0,1.085,3.755c5.045,2.87,8.308,6.779,9.685,11.687,1.754,6.244.248,12.907-1.352,17.417l-1.242-.312-.6.089a2.746,2.746,0,0,0-2.091,3.288c5.222,22.594-.771,31.7-4.371,34.971a63.814,63.814,0,0,0-3.156-10.331,2.737,2.737,0,0,0-2.576-1.709l-1.024.178a2.715,2.715,0,0,0-1.531,3.572c8.06,20.442,1.866,29.883-2.2,33.572a31.907,31.907,0,0,0-.979-4.044,2.759,2.759,0,0,0-2.621-1.932l-.819.134a2.758,2.758,0,0,0-1.8,3.486c1.825,5.623,1.552,10.533-.824,14.661-2.467,4.224-6.752,7-10.486,8.78a2.864,2.864,0,0,0-1.217-2.933,2.767,2.767,0,0,0-3.8.865"
      transform="translate(1012.34 1372.404)" fill="#e6f6ed" />
    <path id="path590"
      d="M365.586-18.141c2.451,3.67,7.748,9.462,13.244,9.54l.159,1.479V-8.6c4.408,0,8.907-3.553,13.371-10.561a4.342,4.342,0,0,1,5.839-1.32,4.384,4.384,0,0,1,1.6,1.923,20.377,20.377,0,0,0,8.033-7.263c2.146-3.73,2.38-8.26.694-13.46a4.118,4.118,0,0,1,.243-3.211,4.226,4.226,0,0,1,2.515-2.139l1.033-.187a1.6,1.6,0,0,1,.237-.019,4.264,4.264,0,0,1,4.037,2.971c.157.467.289.933.407,1.393,3.482-4.517,6.485-13.444-.02-29.94a4.279,4.279,0,0,1,.066-3.313,4.076,4.076,0,0,1,2.33-2.191,1.639,1.639,0,0,1,.257-.068l1.026-.178a1.6,1.6,0,0,1,.253-.022,4.231,4.231,0,0,1,3.944,2.63,67.639,67.639,0,0,1,2.571,7.782c2.97-4.1,6.4-13.141,2.148-31.53a4.113,4.113,0,0,1,.523-3.158,4.244,4.244,0,0,1,2.688-1.907l.708-.1a1.371,1.371,0,0,1,.492.007c1.34-4.205,2.4-9.908.894-15.253-1.258-4.487-4.285-8.124-8.993-10.8a4.088,4.088,0,0,1-1.993-2.444,4.264,4.264,0,0,1,.341-3.3,4.292,4.292,0,0,1,3.721-2.2,1.532,1.532,0,0,1,.394.052l1.359.378c-1.65-5.045-5.45-11.444-13.881-17.738-7.676-5.755-14.8-13.9-21.174-24.205-1.49-1.09-6.906-4.731-12.693-4.731a12.318,12.318,0,0,0-3.507.492c-5.389,1.55-9.717,6.97-12.868,16.111Zm13.4,12.5h-.18c-8.558-.118-15.217-10.12-15.95-11.26a1.477,1.477,0,0,1-.234-.8V-166.351a1.444,1.444,0,0,1,.08-.478c3.491-10.249,8.511-16.382,14.923-18.227a15.346,15.346,0,0,1,4.333-.608c6.886,0,12.989,4.2,14.693,5.491a1.53,1.53,0,0,1,.369.405c6.217,10.1,13.141,18.054,20.576,23.63,11.316,8.447,14.891,17.228,15.9,23.106a1.48,1.48,0,0,1-.667,1.5,1.472,1.472,0,0,1-1.638-.039l-.61-.43c-.592-.423-1.181-.844-1.827-1.224l-.96-.264a1.358,1.358,0,0,0-.974.664,1.3,1.3,0,0,0-.1,1,1.182,1.182,0,0,0,.583.712c5.452,3.1,8.945,7.327,10.422,12.6,1.868,6.649.28,13.628-1.384,18.314a1.478,1.478,0,0,1-1.752.94l-.958-.241-.312.046a1.279,1.279,0,0,0-.712.564,1.182,1.182,0,0,0-.157.912c5.327,23.047-.731,32.707-4.817,36.413a1.467,1.467,0,0,1-1.45.312,1.473,1.473,0,0,1-.99-1.1,62.022,62.022,0,0,0-3.086-10.092,1.237,1.237,0,0,0-1.092-.771l-.721.125a1.133,1.133,0,0,0-.551.575,1.326,1.326,0,0,0-.018,1.018c8.31,21.071,1.95,31.109-2.578,35.219a1.473,1.473,0,0,1-1.454.309,1.479,1.479,0,0,1-.99-1.11l-.1-.517a26.5,26.5,0,0,0-.826-3.347,1.294,1.294,0,0,0-1.126-.926l-.678.111a1.486,1.486,0,0,0-.564.61,1.223,1.223,0,0,0-.073.945c1.959,6.046,1.643,11.38-.942,15.872-2.187,3.745-5.932,6.9-11.134,9.378a1.488,1.488,0,0,1-1.534-.162,1.479,1.479,0,0,1-.557-1.441,1.391,1.391,0,0,0-.58-1.436,1.369,1.369,0,0,0-1.727.414c-5.052,7.93-10.39,11.942-15.874,11.942"
      transform="translate(1011.727 1371.791)" fill="#116149" />
    <path id="path592"
      d="M386.9-166.964V-18.314c-2.225,3.422-8.112,10.488-14.734,10.58h-.148c-4.959,0-9.869-3.78-14.641-11.244a2.768,2.768,0,0,0-3.8-.865,2.824,2.824,0,0,0-1.2,2.933c-3.734-1.782-8.044-4.556-10.5-8.78-2.38-4.128-2.646-9.038-.826-14.662a2.777,2.777,0,0,0-1.775-3.486l-.867-.134a2.793,2.793,0,0,0-2.6,1.932A36.3,36.3,0,0,0,334.83-38c-4.046-3.689-10.267-13.13-2.178-33.572A2.732,2.732,0,0,0,331.1-75.14l-1.022-.178a2.681,2.681,0,0,0-2.553,1.709,65.714,65.714,0,0,0-3.179,10.331c-3.577-3.267-9.6-12.377-4.378-34.971a2.726,2.726,0,0,0-2.087-3.288l-.6-.089-1.265.312c-1.577-4.51-3.09-11.173-1.333-17.417,1.379-4.908,4.644-8.818,9.712-11.687a2.735,2.735,0,0,0,1.063-3.755,2.84,2.84,0,0,0-2.421-1.422l-1.359.38a31.152,31.152,0,0,0-2.733,1.82c.938-5.286,4.224-13.865,15.353-22.173,7.532-5.662,14.577-13.751,20.933-24.037,1.732-1.311,9.862-6.954,17.724-4.642,5.912,1.709,10.6,7.507,13.954,17.283"
      transform="translate(977.287 1372.404)" fill="#e6f6ed" />
    <path id="path594"
      d="M355.648-21.128a4.211,4.211,0,0,1,3.6,1.98C363.72-12.156,368.226-8.6,372.633-8.6l.148,1.479L372.763-8.6c5.452-.076,10.788-5.871,13.273-9.547V-166.1c-3.179-9.139-7.512-14.561-12.887-16.113a12.39,12.39,0,0,0-3.513-.492c-5.787,0-11.2,3.643-12.691,4.733-6.417,10.329-13.531,18.471-21.154,24.2-8.4,6.274-12.218,12.682-13.895,17.74l1.347-.375a1.569,1.569,0,0,1,.4-.055,4.289,4.289,0,0,1,3.7,2.166,4.382,4.382,0,0,1,.362,3.354,4.083,4.083,0,0,1-2.023,2.446c-4.676,2.646-7.71,6.283-8.975,10.775-1.493,5.309-.446,11.027.885,15.258a1.461,1.461,0,0,1,.507-.011l.6.089a4.26,4.26,0,0,1,2.794,1.916,4.136,4.136,0,0,1,.512,3.183c-4.237,18.353-.8,27.41,2.169,31.516a68.926,68.926,0,0,1,2.578-7.773,4.166,4.166,0,0,1,3.928-2.644,1.631,1.631,0,0,1,.255.022l1.022.178a1.635,1.635,0,0,1,.257.068,4.114,4.114,0,0,1,2.346,2.2,4.285,4.285,0,0,1,.073,3.307c-6.515,16.464-3.516,25.4-.039,29.933.118-.467.253-.94.416-1.424a4.274,4.274,0,0,1,4-2.936l1.092.15a1.662,1.662,0,0,1,.23.057,4.2,4.2,0,0,1,2.464,2.1,4.219,4.219,0,0,1,.262,3.245c-1.686,5.2-1.45,9.734.7,13.467a20.31,20.31,0,0,0,8.033,7.245,4.281,4.281,0,0,1,1.572-1.893,4.217,4.217,0,0,1,2.278-.667ZM372.781-5.643h-.148c-5.482,0-10.827-4.013-15.888-11.926a1.323,1.323,0,0,0-1.766-.413,1.337,1.337,0,0,0-.539,1.4,1.475,1.475,0,0,1-.544,1.453,1.484,1.484,0,0,1-1.545.172c-5.225-2.492-8.975-5.644-11.146-9.372-2.59-4.489-2.908-9.826-.956-15.861a1.277,1.277,0,0,0-.082-.988,1.284,1.284,0,0,0-.649-.605l-.726-.109a1.4,1.4,0,0,0-.969.926,24.117,24.117,0,0,0-.733,2.924l-.207.981a1.465,1.465,0,0,1-1,1.09,1.474,1.474,0,0,1-1.443-.314c-4.526-4.128-10.875-14.193-2.558-35.21a1.292,1.292,0,0,0-.023-1.008,1.165,1.165,0,0,0-.569-.591l-.717-.125a1.192,1.192,0,0,0-1.067.762,64.272,64.272,0,0,0-3.113,10.11,1.473,1.473,0,0,1-1,1.1,1.489,1.489,0,0,1-1.445-.319c-4.08-3.724-10.131-13.407-4.822-36.4a1.209,1.209,0,0,0-.148-.935,1.274,1.274,0,0,0-.817-.573l-.2-.03-.99.243a1.485,1.485,0,0,1-1.748-.947c-1.648-4.708-3.222-11.7-1.363-18.307,1.484-5.275,4.986-9.505,10.406-12.575a1.172,1.172,0,0,0,.61-.71,1.388,1.388,0,0,0-.118-1.051,1.342,1.342,0,0,0-.958-.635l-.949.264a22.165,22.165,0,0,0-1.875,1.247l-.58.41a1.479,1.479,0,0,1-1.643.034,1.478,1.478,0,0,1-.662-1.5c1.044-5.9,4.654-14.687,15.924-23.1,7.382-5.55,14.3-13.5,20.56-23.632a1.437,1.437,0,0,1,.366-.4c1.7-1.288,7.805-5.491,14.691-5.491a15.38,15.38,0,0,1,4.344.61c6.39,1.848,11.417,7.978,14.935,18.223a1.5,1.5,0,0,1,.08.48V-17.7a1.492,1.492,0,0,1-.239.808c-.74,1.138-7.48,11.134-15.954,11.251h-.02"
      transform="translate(976.675 1371.791)" fill="#116149" />
    <path id="path596"
      d="M365.586-18.141c2.451,3.67,7.748,9.462,13.244,9.54l.159,1.479V-8.6c4.408,0,8.907-3.553,13.371-10.561a4.342,4.342,0,0,1,5.839-1.32,4.384,4.384,0,0,1,1.6,1.923,20.377,20.377,0,0,0,8.033-7.263c2.146-3.73,2.38-8.26.694-13.46a4.118,4.118,0,0,1,.243-3.211,4.226,4.226,0,0,1,2.515-2.139l1.033-.187a1.6,1.6,0,0,1,.237-.019,4.261,4.261,0,0,1,4.037,2.971c.157.467.289.933.407,1.391,3.482-4.515,6.485-13.442-.02-29.938a4.279,4.279,0,0,1,.066-3.313,4.076,4.076,0,0,1,2.33-2.191,1.639,1.639,0,0,1,.257-.068l1.026-.178a1.6,1.6,0,0,1,.253-.022,4.231,4.231,0,0,1,3.944,2.63,67.639,67.639,0,0,1,2.571,7.782c2.97-4.1,6.4-13.141,2.148-31.53a4.113,4.113,0,0,1,.523-3.158,4.249,4.249,0,0,1,2.688-1.907l.708-.1a1.371,1.371,0,0,1,.492.007c1.34-4.205,2.4-9.908.894-15.253-1.258-4.487-4.285-8.124-8.993-10.8a4.088,4.088,0,0,1-1.993-2.444,4.264,4.264,0,0,1,.341-3.3,4.292,4.292,0,0,1,3.721-2.2,1.532,1.532,0,0,1,.394.052l1.359.378c-1.65-5.045-5.45-11.444-13.881-17.738-7.676-5.755-14.8-13.9-21.174-24.205-1.49-1.09-6.906-4.731-12.693-4.731a12.318,12.318,0,0,0-3.507.492c-5.389,1.55-9.717,6.97-12.868,16.111Zm13.4,12.5h-.18c-8.558-.118-15.217-10.12-15.95-11.26a1.477,1.477,0,0,1-.234-.8V-166.351a1.444,1.444,0,0,1,.08-.478c3.491-10.249,8.511-16.382,14.923-18.227a15.346,15.346,0,0,1,4.333-.608c6.886,0,12.989,4.2,14.693,5.491a1.53,1.53,0,0,1,.369.405c6.217,10.1,13.141,18.054,20.576,23.63,11.087,8.276,14.743,16.876,15.836,22.749a1.463,1.463,0,0,1,.132.608,1.48,1.48,0,0,1-1.481,1.481.269.269,0,0,1-.043,0,1.47,1.47,0,0,1-.849-.271l-.61-.43c-.592-.423-1.181-.844-1.827-1.224l-.96-.264a1.358,1.358,0,0,0-.974.664,1.3,1.3,0,0,0-.1,1,1.182,1.182,0,0,0,.583.712c5.452,3.1,8.945,7.327,10.422,12.6,1.868,6.649.28,13.628-1.384,18.314a1.478,1.478,0,0,1-1.752.94l-.958-.241-.312.046a1.279,1.279,0,0,0-.712.564,1.182,1.182,0,0,0-.157.913c5.327,23.047-.731,32.707-4.817,36.413a1.467,1.467,0,0,1-1.45.312,1.473,1.473,0,0,1-.99-1.1,62.022,62.022,0,0,0-3.086-10.092,1.237,1.237,0,0,0-1.092-.771l-.721.125a1.133,1.133,0,0,0-.551.575,1.326,1.326,0,0,0-.018,1.018c8.31,21.071,1.95,31.109-2.578,35.219a1.456,1.456,0,0,1-1.454.307,1.471,1.471,0,0,1-.99-1.108l-.1-.517a26.5,26.5,0,0,0-.826-3.347,1.294,1.294,0,0,0-1.126-.926l-.678.111a1.486,1.486,0,0,0-.564.61,1.223,1.223,0,0,0-.073.945c1.959,6.046,1.643,11.38-.942,15.872-2.187,3.745-5.932,6.9-11.134,9.378a1.488,1.488,0,0,1-1.534-.162,1.479,1.479,0,0,1-.557-1.441,1.391,1.391,0,0,0-.58-1.436,1.369,1.369,0,0,0-1.727.414c-5.052,7.93-10.39,11.942-15.874,11.942"
      transform="translate(1011.727 1371.791)" fill="#116149" />
    <path id="path598"
      d="M377.521-57.34a1.485,1.485,0,0,1-1.288-.707,1.436,1.436,0,0,1,.446-1.98c1.775-.988,7.111-4.379,7.937-10.24.514-3.575-.73-7.391-3.7-11.341a1.478,1.478,0,0,1,.016-1.8,1.47,1.47,0,0,1,1.738-.451,1.39,1.39,0,0,0,1.607-.282c1.19-1.489,11.6-15.2,3.493-29.349a1.5,1.5,0,0,1-.148-.357,46.472,46.472,0,0,1-1.493-10.246,1.481,1.481,0,0,1,1.461-1.5h.018a1.479,1.479,0,0,1,1.481,1.459,42.7,42.7,0,0,0,1.347,9.348C399.33-99,387.9-83.937,386.564-82.264a4.147,4.147,0,0,1-1.7,1.212,16.788,16.788,0,0,1,2.681,11.2c-1.017,7.212-7.352,11.251-9.271,12.316a1.559,1.559,0,0,1-.753.193"
      transform="translate(1021.19 1414.242)" fill="#116149" />
    <path id="path600"
      d="M375.692-69.443A4.115,4.115,0,0,1,373.621-70a4.243,4.243,0,0,1-1.98-2.61c-.073-.265-7.448-28.249.824-48.167a4.116,4.116,0,0,1,3.9-2.626,1.479,1.479,0,0,1,1.479,1.481,1.479,1.479,0,0,1-1.479,1.479,1.187,1.187,0,0,0-1.145.754c-7.91,19.044-.787,46.055-.715,46.328a1.25,1.25,0,0,0,.6.8,1.215,1.215,0,0,0,.933.117,1.47,1.47,0,0,1,1.825,1.024,1.48,1.48,0,0,1-1.024,1.825,4.254,4.254,0,0,1-1.14.157"
      transform="translate(1015.91 1415.788)" fill="#116149" />
    <path id="path602"
      d="M384.173-154.109a1.507,1.507,0,0,1-.225-.018c-.61-.093-14.951-2.462-18.826-17.215a1.48,1.48,0,0,1,1.056-1.807,1.476,1.476,0,0,1,1.807,1.056c3.386,12.9,15.881,14.96,16.411,15.042a1.48,1.48,0,0,1,1.238,1.686,1.48,1.48,0,0,1-1.461,1.256"
      transform="translate(1013.457 1380.601)" fill="#116149" />
    <path id="path604"
      d="M402.635-155.1a1.48,1.48,0,0,1-1.27-.717c-.551-.922-13.676-22.542-25.678-22.542a9.789,9.789,0,0,0-2,.191,1.477,1.477,0,0,1-1.743-1.156,1.479,1.479,0,0,1,1.156-1.743,12.6,12.6,0,0,1,2.583-.253c13.426,0,26.74,21.525,28.215,23.978a1.479,1.479,0,0,1-.507,2.03,1.471,1.471,0,0,1-.76.212"
      transform="translate(1018.294 1374.861)" fill="#116149" />
    <path id="path606"
      d="M410.285-110.236a1.459,1.459,0,0,1-1.031-.425c-.059-.062-6.012-6.236-4.776-24.033l-.045-.328c-.016-.1-2.8-18.2-13.253-19.588l-.257-.009a1.479,1.479,0,0,1-1.4-1.554,1.51,1.51,0,0,1,1.554-1.4l.375.02c12.943,1.718,15.893,22,15.918,22.207l.057.63c-1.1,16.163,3.9,21.939,3.955,22a1.494,1.494,0,0,1-.073,2.073,1.48,1.48,0,0,1-1.024.412"
      transform="translate(1030.733 1391.641)" fill="#116149" />
    <path id="path608"
      d="M397.574-120.407a1.48,1.48,0,0,1-1.481-1.479c0-.111-.189-11.425-12.482-25.165a1.479,1.479,0,0,1,.116-2.089,1.477,1.477,0,0,1,2.089.116c13.085,14.627,13.237,27.013,13.237,27.138a1.479,1.479,0,0,1-1.479,1.479"
      transform="translate(1026.291 1397.334)" fill="#116149" />
    <path id="path610"
      d="M369.01-141.92a1.467,1.467,0,0,1-.8-.234,1.477,1.477,0,0,1-.446-2.043,11.845,11.845,0,0,1,8.335-5.6,10.406,10.406,0,0,1,1.927-.148,17.377,17.377,0,0,1,6.406,1.343,14.816,14.816,0,0,1,1.1-5.741c2.633-6.324,9.207-9.805,19.542-10.349l.212,1.477v1.479c-9.155.476-14.866,3.347-17.026,8.533a12.928,12.928,0,0,0-.724,6.811,1.476,1.476,0,0,1-.628,1.411,1.483,1.483,0,0,1-1.543.084,16,16,0,0,0-7.339-2.087,7.775,7.775,0,0,0-1.422.1,9,9,0,0,0-6.351,4.283,1.473,1.473,0,0,1-1.247.68"
      transform="translate(1015.194 1386.61)" fill="#116149" />
    <path id="path612"
      d="M398.5-116.975c-5.571,0-8.927-5.883-11.708-10.748-1.7-2.986-3.468-6.071-5.115-6.574-.228-.061-1.1-.294-2.785.883a1.479,1.479,0,0,1-2.059-.369,1.48,1.48,0,0,1,.366-2.059,6.236,6.236,0,0,1,5.284-1.3c2.831.862,4.706,4.148,6.879,7.955,3.561,6.235,6.451,10.513,11.216,8.872a1.473,1.473,0,0,1,1.88.917,1.479,1.479,0,0,1-.917,1.88,9.294,9.294,0,0,1-3.04.544"
      transform="translate(1021.58 1405.961)" fill="#116149" />
    <path id="path614"
      d="M366.562-121.759a4.409,4.409,0,0,1-1.138-.153,1.48,1.48,0,0,1-1.045-1.813,1.484,1.484,0,0,1,1.811-1.044,1.308,1.308,0,0,0,1.008-.121,1.253,1.253,0,0,0,.585-.767c1.641-5.88,13.856-4.207,13.977-4.189A1.478,1.478,0,0,1,383-128.165a1.5,1.5,0,0,1-1.682,1.243c-3.3-.494-10.051-.223-10.684,2.048a4.177,4.177,0,0,1-1.962,2.548,4.215,4.215,0,0,1-2.114.567"
      transform="translate(1012.931 1411.071)" fill="#116149" />
    <path id="path616"
      d="M355.648-21.128a4.211,4.211,0,0,1,3.6,1.98C363.72-12.156,368.226-8.6,372.633-8.6l.148,1.479L372.763-8.6c5.452-.076,10.788-5.871,13.273-9.547V-166.1c-3.179-9.139-7.512-14.561-12.887-16.113a12.39,12.39,0,0,0-3.513-.492c-5.787,0-11.2,3.643-12.691,4.733-6.417,10.331-13.531,18.471-21.154,24.2-8.4,6.274-12.218,12.682-13.892,17.74l1.345-.375a1.569,1.569,0,0,1,.4-.055,4.289,4.289,0,0,1,3.7,2.166,4.382,4.382,0,0,1,.362,3.354,4.083,4.083,0,0,1-2.023,2.446c-4.676,2.646-7.71,6.283-8.975,10.775-1.493,5.309-.446,11.027.885,15.258a1.461,1.461,0,0,1,.507-.011l.6.089a4.265,4.265,0,0,1,2.794,1.914,4.143,4.143,0,0,1,.512,3.186c-4.237,18.353-.8,27.41,2.169,31.516a68.926,68.926,0,0,1,2.578-7.773,4.166,4.166,0,0,1,3.928-2.644,1.631,1.631,0,0,1,.255.022l1.022.178a1.635,1.635,0,0,1,.257.068,4.114,4.114,0,0,1,2.346,2.2,4.285,4.285,0,0,1,.073,3.307c-6.515,16.464-3.516,25.4-.039,29.933.118-.467.253-.94.416-1.424a4.274,4.274,0,0,1,4-2.936l1.092.15a1.662,1.662,0,0,1,.23.057,4.2,4.2,0,0,1,2.464,2.1,4.219,4.219,0,0,1,.262,3.245c-1.686,5.2-1.45,9.734.7,13.467a20.31,20.31,0,0,0,8.033,7.245,4.281,4.281,0,0,1,1.572-1.893,4.217,4.217,0,0,1,2.278-.667ZM372.781-5.643h-.148c-5.482,0-10.827-4.013-15.888-11.926a1.323,1.323,0,0,0-1.766-.413,1.337,1.337,0,0,0-.539,1.4,1.475,1.475,0,0,1-.544,1.453,1.484,1.484,0,0,1-1.545.172c-5.225-2.492-8.975-5.644-11.146-9.372-2.59-4.489-2.908-9.826-.956-15.861a1.277,1.277,0,0,0-.082-.988,1.284,1.284,0,0,0-.649-.605l-.726-.109a1.4,1.4,0,0,0-.969.926,24.117,24.117,0,0,0-.733,2.924l-.207.981a1.465,1.465,0,0,1-1,1.09,1.474,1.474,0,0,1-1.443-.314c-4.526-4.128-10.875-14.19-2.558-35.21a1.292,1.292,0,0,0-.023-1.008,1.165,1.165,0,0,0-.569-.591l-.717-.125a1.192,1.192,0,0,0-1.067.762,64.272,64.272,0,0,0-3.113,10.11,1.473,1.473,0,0,1-1,1.1,1.489,1.489,0,0,1-1.445-.319c-4.08-3.724-10.131-13.407-4.822-36.4a1.209,1.209,0,0,0-.148-.935,1.274,1.274,0,0,0-.817-.573l-.2-.03-.99.243a1.485,1.485,0,0,1-1.748-.947c-1.648-4.708-3.222-11.7-1.363-18.307,1.484-5.275,4.986-9.505,10.406-12.575a1.172,1.172,0,0,0,.61-.71,1.388,1.388,0,0,0-.118-1.051,1.342,1.342,0,0,0-.958-.635l-.949.264a21.8,21.8,0,0,0-1.875,1.247l-.58.41a1.479,1.479,0,0,1-1.643.034,1.478,1.478,0,0,1-.662-1.5c1.044-5.9,4.654-14.687,15.924-23.1,7.382-5.55,14.3-13.5,20.56-23.632a1.437,1.437,0,0,1,.366-.4c1.7-1.288,7.805-5.491,14.691-5.491a15.38,15.38,0,0,1,4.344.61c6.39,1.848,11.417,7.978,14.935,18.223a1.5,1.5,0,0,1,.08.48V-17.7a1.492,1.492,0,0,1-.239.808c-.74,1.138-7.48,11.134-15.954,11.251h-.02"
      transform="translate(976.675 1371.791)" fill="#116149" />
    <path id="path618"
      d="M349.3-57.49c-1.955-1.059-8.317-5.042-9.348-12.363a16.876,16.876,0,0,1,2.667-11.2,4.031,4.031,0,0,1-1.657-1.19c-1.361-1.718-12.72-16.855-3.9-32.538a44.832,44.832,0,0,0,1.347-9.362,1.48,1.48,0,0,1,1.479-1.447.187.187,0,0,1,.032,0,1.476,1.476,0,0,1,1.447,1.509,47.247,47.247,0,0,1-1.493,10.235,1.559,1.559,0,0,1-.146.355c-8.035,14.061,2.321,27.846,3.527,29.371a1.3,1.3,0,0,0,1.522.266,1.485,1.485,0,0,1,1.752.437,1.481,1.481,0,0,1,.03,1.8c-2.951,3.964-4.187,7.783-3.675,11.344.837,5.957,6.183,9.286,7.8,10.167L349.3-57.49"
      transform="translate(991.313 1414.242)" fill="#116149" />
    <path id="path620"
      d="M348.34-69.443A4.2,4.2,0,0,1,347.2-69.6a1.482,1.482,0,0,1-1.024-1.825A1.468,1.468,0,0,1,348-72.448a1.215,1.215,0,0,0,.949-.121,1.2,1.2,0,0,0,.569-.763c.084-.307,7.234-27.234-.685-46.314a1.208,1.208,0,0,0-1.163-.8,1.48,1.48,0,0,1-1.481-1.479,1.48,1.48,0,0,1,1.481-1.481,4.132,4.132,0,0,1,3.912,2.667c8.285,19.964.878,47.864.8,48.144a4.175,4.175,0,0,1-1.941,2.578,4.133,4.133,0,0,1-2.1.573"
      transform="translate(1000.063 1415.788)" fill="#116149" />
    <path id="path622"
      d="M344.5-154.108a1.482,1.482,0,0,1-1.461-1.256,1.481,1.481,0,0,1,1.238-1.686c.53-.082,13.019-2.144,16.409-15.042a1.478,1.478,0,0,1,1.807-1.056,1.48,1.48,0,0,1,1.056,1.807c-3.88,14.753-18.214,17.121-18.821,17.215a1.558,1.558,0,0,1-.228.018"
      transform="translate(997.873 1380.6)" fill="#116149" />
    <path id="path624"
      d="M330.857-155.1a1.461,1.461,0,0,1-.762-.214,1.477,1.477,0,0,1-.5-2.03c1.479-2.453,14.846-23.975,28.2-23.975a13.13,13.13,0,0,1,2.6.253,1.478,1.478,0,0,1,1.154,1.745,1.478,1.478,0,0,1-1.745,1.154,10.088,10.088,0,0,0-2.009-.191c-9.526,0-20.612,14.17-25.664,22.544a1.479,1.479,0,0,1-1.268.715"
      transform="translate(988.232 1374.861)" fill="#116149" />
    <path id="path626"
      d="M319.077-110.233a1.47,1.47,0,0,1-.958-.353,1.474,1.474,0,0,1-.168-2.08c.216-.255,5.075-6.105,4.005-21.825l.023-.717c.039-.341,2.958-20.626,15.806-22.335l.5-.032a1.474,1.474,0,0,1,1.554,1.4,1.48,1.48,0,0,1-1.4,1.554l-.382.021c-10.352,1.379-13.112,19.472-13.137,19.654l-.011.414c1.129,16.468-4.105,23.079-4.706,23.78a1.483,1.483,0,0,1-1.126.516"
      transform="translate(979.907 1391.641)" fill="#116149" />
    <path id="path628"
      d="M329.128-120.412h0a1.475,1.475,0,0,1-1.477-1.475c0-.125.15-12.52,13.262-27.138a1.482,1.482,0,0,1,2.089-.116,1.482,1.482,0,0,1,.114,2.089c-12.32,13.738-12.507,25.054-12.507,25.165a1.481,1.481,0,0,1-1.479,1.475"
      transform="translate(987.009 1397.335)" fill="#116149" />
    <path id="path630"
      d="M367.375-141.919a1.481,1.481,0,0,1-1.245-.676,9.032,9.032,0,0,0-6.306-4.276,7.862,7.862,0,0,0-1.493-.114,15.989,15.989,0,0,0-7.346,2.089,1.485,1.485,0,0,1-1.541-.089,1.479,1.479,0,0,1-.623-1.409,12.662,12.662,0,0,0-.715-6.8c-2.164-5.2-7.876-8.071-16.98-8.549a1.526,1.526,0,0,1-1.456-1.516,1.433,1.433,0,0,1,1.424-1.44c10.527.546,17.1,4.028,19.738,10.354a14.245,14.245,0,0,1,1.1,5.737,17.054,17.054,0,0,1,6.394-1.34,10.687,10.687,0,0,1,1.984.157,11.889,11.889,0,0,1,8.3,5.584,1.482,1.482,0,0,1-.437,2.048,1.5,1.5,0,0,1-.8.237"
      transform="translate(988.438 1386.609)" fill="#116149" />
    <path id="path632"
      d="M332.4-116.98a9.259,9.259,0,0,1-3.042-.544,1.477,1.477,0,0,1-.915-1.88,1.475,1.475,0,0,1,1.88-.917c4.772,1.652,7.657-2.637,11.216-8.874,2.173-3.805,4.048-7.091,6.822-7.938a6.39,6.39,0,0,1,5.368,1.286,1.48,1.48,0,0,1,.366,2.059,1.478,1.478,0,0,1-2.059.369,3.57,3.57,0,0,0-2.872-.867c-1.591.487-3.352,3.573-5.056,6.556-2.778,4.868-6.137,10.75-11.708,10.75"
      transform="translate(987.514 1405.966)" fill="#116149" />
    <path id="path634"
      d="M361.317-121.766a4.215,4.215,0,0,1-2.114-.567,4.174,4.174,0,0,1-1.962-2.565c-.623-2.267-7.368-2.535-10.656-2.032a1.482,1.482,0,0,1-1.684-1.24,1.48,1.48,0,0,1,1.24-1.684c.118-.02,12.359-1.615,13.956,4.18a1.258,1.258,0,0,0,.583.779,1.327,1.327,0,0,0,1,.12,1.475,1.475,0,0,1,1.814,1.04,1.475,1.475,0,0,1-1.04,1.814,4.359,4.359,0,0,1-1.138.155"
      transform="translate(999.189 1411.078)" fill="#116149" />
  </g>
</svg>