<svg id="Grupo_498" data-name="Grupo 498" xmlns="http://www.w3.org/2000/svg" width="29.28" height="27.257"
  viewBox="0 0 29.28 27.257">
  <path id="Trazado_1136" data-name="Trazado 1136"
    d="M40.3,589.479c3.734,0,7.468-.009,11.2.011a5.1,5.1,0,0,1,1.519.244,2.9,2.9,0,0,1,1.79,2.082,1.151,1.151,0,0,1-.324,1.337,4.127,4.127,0,0,1-.356.292c-4.342,3.329-8.689,6.648-13.02,10a1.2,1.2,0,0,1-1.7.012c-4.368-3.387-8.753-6.742-13.132-10.107a3.891,3.891,0,0,1-.385-.318.909.909,0,0,1-.245-.886,2.918,2.918,0,0,1,2.519-2.588c.453-.042.908-.067,1.362-.068q5.386-.008,10.772,0Z"
    transform="translate(-25.618 -589.477)" fill="#e5e4e3" fill-rule="evenodd" />
  <path id="Trazado_1137" data-name="Trazado 1137"
    d="M40.2,650.18c-3.781,0-7.562.008-11.343-.01a4.553,4.553,0,0,1-1.412-.233,2.849,2.849,0,0,1-1.766-2.152.993.993,0,0,1,.389-1.279q1.484-1.137,2.974-2.265c2.449-1.862,4.9-3.719,7.343-5.591a1.037,1.037,0,0,1,1.376-.045q.933.689,1.851,1.408c.508.4.736.406,1.244.008.682-.534,1.374-1.049,2.052-1.591a.765.765,0,0,1,1.063.068q2.022,1.569,4.051,3.125,3.09,2.365,6.187,4.72c.725.552.832.97.463,1.915a2.768,2.768,0,0,1-2.27,1.854,6.59,6.59,0,0,1-1.074.068Q45.768,650.184,40.2,650.18Z"
    transform="translate(-25.603 -622.924)" fill="#e5e4e3" fill-rule="evenodd" />
  <path id="Trazado_1138" data-name="Trazado 1138" d="M25.768,624.266V609.649l9.487,7.306Z"
    transform="translate(-25.725 -603.312)" fill="#e5e4e3" fill-rule="evenodd" />
  <path id="Trazado_1139" data-name="Trazado 1139" d="M101.769,616.988l9.465-7.294v14.583Z"
    transform="translate(-82.003 -603.343)" fill="#e5e4e3" fill-rule="evenodd" />
</svg>