<svg xmlns="http://www.w3.org/2000/svg" width="31.651" height="33.373" viewBox="0 0 31.651 33.373">
  <path id="Trazado_1199" data-name="Trazado 1199"
    d="M45.374,482.879h-.283c-1.39,0-2.78-.005-4.171.005-.22,0-.27-.07-.267-.289.012-1.131-.006-2.263.02-3.394a1.811,1.811,0,0,1,.762-1.591,2.064,2.064,0,0,1,1.1-.328c.912-.017,1.825-.015,2.738-.021.283,0,.283,0,.283-.289v-4.284c-.263-.032-.509-.076-.758-.091-.623-.04-1.246-.078-1.87-.1-.526-.015-1.054-.026-1.579,0a5.622,5.622,0,0,0-5.514,4.72,9.842,9.842,0,0,0-.206,2.064c0,1.109,0,2.218.005,3.327,0,.219-.065.271-.264.27-1.208-.009-2.416,0-3.623-.009-.208,0-.258.07-.257.278q.011,2.273,0,4.547c0,.235.072.28.277.278,1.2-.009,2.4,0,3.6-.009.2,0,.267.045.267.267q-.009,6.2,0,12.4c0,.206-.058.26-.251.259q-7.383-.008-14.767,0a1.763,1.763,0,0,1-1.823-1.36,1.136,1.136,0,0,1-.032-.283q0-15.06,0-30.121a1.686,1.686,0,0,1,1.519-1.6H48.885a1.686,1.686,0,0,1,1.524,1.6q0,15.06,0,30.121a1.714,1.714,0,0,1-1.413,1.6c-.335.026-.672.042-1.008.043-2.359,0-4.719,0-7.078.007-.208,0-.257-.068-.257-.276q.008-6.188,0-12.377c0-.214.058-.274.261-.273,1.207.009,2.416,0,3.623.008.182,0,.245-.045.269-.251.141-1.258.3-2.514.456-3.771.034-.277.077-.554.111-.831A2.31,2.31,0,0,0,45.374,482.879Z"
    transform="translate(-18.758 -467.521)" fill="#e5e4e3" fill-rule="evenodd" />
</svg>