<svg xmlns="http://www.w3.org/2000/svg" xmlns:xlink="http://www.w3.org/1999/xlink" width="218" height="44"
  viewBox="0 0 218 44">
  <defs>
    <clipPath id="clip-path">
      <rect y="9" width="218" height="44" fill="none" />
    </clipPath>
  </defs>
  <g id="Grupo_de_desplazamiento_4" data-name="Grupo de desplazamiento 4" transform="translate(0 -9)"
    clip-path="url(#clip-path)" style="isolation: isolate">
    <g id="Grupo_561" data-name="Grupo 561" transform="translate(-288 -29)">
      <text id="Lambda" transform="translate(338 76)" fill="#13aa52" font-size="45"
        font-family="ArtifaktElement-Bold, Artifakt Element" font-weight="700">
        <tspan x="0" y="0">Lambda</tspan>
      </text>
      <g id="Grupo_491" data-name="Grupo 491" transform="translate(-111 -3738)">
        <g id="Trazado_1196" data-name="Trazado 1196" transform="translate(399 3776)" fill="#fff">
          <path
            d="M 32.29541397094727 40.56054306030273 L 10.76513385772705 40.56054306030273 C 6.207723617553711 40.56054306030273 2.500003337860107 36.85282516479492 2.500003337860107 32.29541397094727 L 2.500003337860107 10.76513385772705 C 2.500003337860107 6.207723617553711 6.207723617553711 2.500003337860107 10.76513385772705 2.500003337860107 L 32.29541397094727 2.500003337860107 C 36.85282516479492 2.500003337860107 40.56054306030273 6.207723617553711 40.56054306030273 10.76513385772705 L 40.56054306030273 32.29541397094727 C 40.56054306030273 36.85282516479492 36.85282516479492 40.56054306030273 32.29541397094727 40.56054306030273 Z"
            stroke="none" />
          <path
            d="M 10.76514053344727 4.999996185302734 C 7.586227416992188 4.999996185302734 4.999996185302734 7.586227416992188 4.999996185302734 10.76514053344727 L 4.999996185302734 32.29540634155273 C 4.999996185302734 35.47431945800781 7.586227416992188 38.06055068969727 10.76514053344727 38.06055068969727 L 32.29540634155273 38.06055068969727 C 35.47431945800781 38.06055068969727 38.06055068969727 35.47431945800781 38.06055068969727 32.29540634155273 L 38.06055068969727 10.76514053344727 C 38.06055068969727 7.586227416992188 35.47431945800781 4.999996185302734 32.29540634155273 4.999996185302734 L 10.76514053344727 4.999996185302734 M 10.76514053344727 -3.814697265625e-06 L 32.29540634155273 -3.814697265625e-06 C 38.24082946777344 -3.814697265625e-06 43.06055068969727 4.819717407226563 43.06055068969727 10.76514053344727 L 43.06055068969727 32.29540634155273 C 43.06055068969727 38.24082946777344 38.24082946777344 43.06055068969727 32.29540634155273 43.06055068969727 L 10.76514053344727 43.06055068969727 C 4.819717407226563 43.06055068969727 -3.814697265625e-06 38.24082946777344 -3.814697265625e-06 32.29540634155273 L -3.814697265625e-06 10.76514053344727 C -3.814697265625e-06 4.819717407226563 4.819717407226563 -3.814697265625e-06 10.76514053344727 -3.814697265625e-06 Z"
            stroke="none" fill="#13aa52" />
        </g>
        <path id="Trazado_1195" data-name="Trazado 1195"
          d="M468.9,253.21h6.721l8.671,20.975,3.66-1.085,1.248,3.77-7.983,2.472-5.091-12.371-7.72,11.015h-5.34l10.848-16.244-1.456-4.342H468.9Z"
          transform="translate(-55.848 3531.008)" fill="#13aa52" />
      </g>
    </g>
  </g>
</svg>