<svg xmlns="http://www.w3.org/2000/svg" width="455.5" height="133" viewBox="0 0 455.5 133">
  <g id="Grupo_562" data-name="Grupo 562" transform="translate(-140.5 -5302)">
    <g id="Grupo_497" data-name="Grupo 497" transform="translate(-258.5 1547.731)">
      <g id="Trazado_1196" data-name="Trazado 1196" transform="translate(399 3776)" fill="none">
        <path d="M22.384,0H67.153A22.384,22.384,0,0,1,89.537,22.384V67.153A22.384,22.384,0,0,1,67.153,89.537H22.384A22.384,22.384,0,0,1,0,67.153V22.384A22.384,22.384,0,0,1,22.384,0Z" stroke="none"/>
        <path d="M 22.38425445556641 12.99999237060547 C 17.20975494384766 12.99999237060547 12.99999237060547 17.20975494384766 12.99999237060547 22.38425445556641 L 12.99999237060547 67.15275573730469 C 12.99999237060547 72.32723236083984 17.20975494384766 76.53699493408203 22.38425445556641 76.53699493408203 L 67.15275573730469 76.53699493408203 C 72.32723236083984 76.53699493408203 76.53699493408203 72.32723236083984 76.53699493408203 67.15275573730469 L 76.53699493408203 22.38425445556641 C 76.53699493408203 17.20975494384766 72.32723236083984 12.99999237060547 67.15275573730469 12.99999237060547 L 22.38425445556641 12.99999237060547 M 22.38425445556641 -7.62939453125e-06 L 67.15275573730469 -7.62939453125e-06 C 79.51522827148438 -7.62939453125e-06 89.53699493408203 10.02175903320313 89.53699493408203 22.38425445556641 L 89.53699493408203 67.15275573730469 C 89.53699493408203 79.51522827148438 79.51522827148438 89.53699493408203 67.15275573730469 89.53699493408203 L 22.38425445556641 89.53699493408203 C 10.02175903320313 89.53699493408203 -7.62939453125e-06 79.51522827148438 -7.62939453125e-06 67.15275573730469 L -7.62939453125e-06 22.38425445556641 C -7.62939453125e-06 10.02175903320313 10.02175903320313 -7.62939453125e-06 22.38425445556641 -7.62939453125e-06 Z" stroke="none" fill="#e5e4e3"/>
      </g>
      <path id="Trazado_1195" data-name="Trazado 1195" d="M475.19,253.21h13.975L507.2,296.823l7.611-2.255,2.6,7.84-16.6,5.141-10.585-25.724-16.052,22.9h-11.1l22.556-33.777-3.027-9.029h-7.4Z" transform="translate(-46.979 3539.877)" fill="#e5e4e3" stroke="#e5e4e3" stroke-width="1"/>
    </g>
    <text id="Lambda" transform="translate(241 5402)" fill="#e5e4e3" font-size="95" font-family="ArtifaktElement-Bold, Artifakt Element" font-weight="700"><tspan x="0" y="0">Lambda</tspan></text>
  </g>
</svg>
