<svg id="Grupo_492" data-name="Grupo 492" xmlns="http://www.w3.org/2000/svg" width="23.022" height="23.022"
  viewBox="0 0 23.022 23.022">
  <g id="Trazado_1196" data-name="Trazado 1196" fill="none">
    <path
      d="M5.756,0H17.267a5.756,5.756,0,0,1,5.756,5.756V17.267a5.756,5.756,0,0,1-5.756,5.756H5.756A5.756,5.756,0,0,1,0,17.267V5.756A5.756,5.756,0,0,1,5.756,0Z"
      stroke="none" />
    <path
      d="M 5.755611419677734 2 C 3.684761047363281 2 2 3.684761047363281 2 5.755611419677734 L 2 17.2668399810791 C 2 19.33769989013672 3.684761047363281 21.0224609375 5.755611419677734 21.0224609375 L 17.2668399810791 21.0224609375 C 19.33769989013672 21.0224609375 21.0224609375 19.33769989013672 21.0224609375 17.2668399810791 L 21.0224609375 5.755611419677734 C 21.0224609375 3.684761047363281 19.33769989013672 2 17.2668399810791 2 L 5.755611419677734 2 M 5.755611419677734 0 L 17.2668399810791 0 C 20.44557952880859 0 23.0224609375 2.576881408691406 23.0224609375 5.755611419677734 L 23.0224609375 17.2668399810791 C 23.0224609375 20.44557952880859 20.44557952880859 23.0224609375 17.2668399810791 23.0224609375 L 5.755611419677734 23.0224609375 C 2.576881408691406 23.0224609375 0 20.44557952880859 0 17.2668399810791 L 0 5.755611419677734 C 0 2.576881408691406 2.576881408691406 0 5.755611419677734 0 Z"
      stroke="none" fill="#13aa52" />
  </g>
  <path id="Trazado_1195" data-name="Trazado 1195"
    d="M466.182,253.21h3.593l4.636,11.214,1.957-.58.667,2.016-4.268,1.322-2.722-6.614-4.127,5.889h-2.855l5.8-8.685-.778-2.322h-1.9Z"
    transform="translate(-458.671 -248.816)" fill="#13aa52" />
</svg>