<svg xmlns="http://www.w3.org/2000/svg" width="29.641" height="29.594" viewBox="0 0 29.641 29.594">
  <path id="Trazado_1198" data-name="Trazado 1198"
    d="M150.206,590.884V566.261a1.209,1.209,0,0,0,.06-.153,3.076,3.076,0,0,1,1-1.635,3.812,3.812,0,0,1,1.425-.7h24.662a1.078,1.078,0,0,0,.154.06,2.989,2.989,0,0,1,2.333,2.8q.006,11.932,0,23.863a2.962,2.962,0,0,1-2.871,2.866q-11.95.007-23.9,0a2.824,2.824,0,0,1-2.107-.987A3.583,3.583,0,0,1,150.206,590.884Zm16.288-1.975v-.374q0-3.424,0-6.848c0-.278.015-.557.037-.835a2.257,2.257,0,0,1,1.544-1.873,2.185,2.185,0,0,1,2.288.631,2.446,2.446,0,0,1,.6,1.7q0,3.626,0,7.252v.341h4.423v-.31q0-3.973,0-7.945a5.067,5.067,0,0,0-2.191-4.328,4.536,4.536,0,0,0-5.744.069c-.342.271-.657.575-.964.844v-1.584h-4.4v13.265Zm-7.432,0V575.638h-4.386v13.269Zm-2.2-15.823a2.643,2.643,0,0,0,2.662-2.656,2.651,2.651,0,1,0-2.662,2.656Z"
    transform="translate(-150.206 -563.775)" fill="#e5e4e3" fill-rule="evenodd" />
</svg>