<svg id="call-24px" xmlns="http://www.w3.org/2000/svg" width="22.919" height="22.919" viewBox="0 0 22.919 22.919">
  <path id="Trazado_1142" data-name="Trazado 1142" d="M0,0H22.919V22.919H0Z" fill="none"/>
  <path id="Trazado_1143" data-name="Trazado 1143" d="M19.244,14.822a10.927,10.927,0,0,1-3.371-.535.933.933,0,0,0-.965.229l-1.5,1.881a14.5,14.5,0,0,1-6.58-6.522L8.692,8.29a.975.975,0,0,0,.229-.974,10.65,10.65,0,0,1-.535-3.371A.954.954,0,0,0,7.441,3h-3.3C3.621,3,3,3.229,3,3.945A16.379,16.379,0,0,0,19.244,20.189a1,1,0,0,0,.945-1.127V15.768a.954.954,0,0,0-.945-.945Z" transform="translate(-0.135 -0.135)" fill="#5a5a5a"/>
</svg>
