<svg xmlns="http://www.w3.org/2000/svg" width="180" height="181.149" viewBox="0 0 180 181.149">
  <g id="Grupo_484" data-name="Grupo 484" transform="translate(-931 -1332)">
    <path id="Trazado_1151" data-name="Trazado 1151" d="M1159.168,1375.985v26.426l16.958-10.142V1365.7Z"
      transform="translate(-131.055 59.583)" fill="#9ddcb7" opacity="0.5" />
    <path id="Trazado_1150" data-name="Trazado 1150"
      d="M309.486,779.61a16.4,16.4,0,0,1-1.048-9.491c1.415-7.372,8.561-13.223,15.878-12.986a16.4,16.4,0,0,1,15.666,13.792c.895,6.4-.884,11.792-6.415,15.4a15.763,15.763,0,0,1-17.443.551,1.616,1.616,0,0,0-1.894-.034q-6,3.566-12.061,7.011a2.161,2.161,0,0,0-1.185,2.181q.045,11.639-.005,23.276a2.267,2.267,0,0,0,1.31,2.254q11.566,6.67,23.069,13.446a1.967,1.967,0,0,0,2.8-.294,18.8,18.8,0,1,1-6.173,13.307c.046-1.244.344-2.479.385-3.721a1.8,1.8,0,0,0-.581-1.4q-12.219-7.185-24.514-14.24a1.935,1.935,0,0,0-1.623.025q-10.409,5.974-20.743,12.077a2.259,2.259,0,0,0-.935,1.634c-.073,5.6-.02,11.213-.078,16.817-.011,1.087.636,1.308,1.4,1.616,6.039,2.454,10.347,8.8,10.192,14.994a16,16,0,0,1-31.07,5.241,15.872,15.872,0,0,1,9.072-20.151,2.748,2.748,0,0,0,2.065-3.128c-.116-4.952-.068-9.908-.018-14.864a2.005,2.005,0,0,0-1.158-2.016q-10.078-5.8-20.093-11.7a2.117,2.117,0,0,0-2.454,0q-11.8,6.859-23.659,13.627a1.7,1.7,0,0,0-1.051,2.1,19.069,19.069,0,0,1-15.778,22.408c-9.595,1.606-19.825-5.747-21.36-15.481-1.923-12.166,7.055-22.523,19.318-22.178a17.945,17.945,0,0,1,12.471,5.476,1.54,1.54,0,0,0,2.265.349q11.294-6.685,22.663-13.25a2.151,2.151,0,0,0,1.215-2.147q-.053-12.39,0-24.778a2.271,2.271,0,0,0-1.274-2.274q-6.573-3.766-13.057-7.682a1.848,1.848,0,0,0-2.588.219,16.179,16.179,0,0,1-25.941-15.844,16.557,16.557,0,0,1,14.121-12.521,16.118,16.118,0,0,1,17.3,18.537,1.961,1.961,0,0,0,1.13,2.393c4.393,2.488,8.737,5.065,13.075,7.652a1.842,1.842,0,0,0,2.171.039q10.73-6.317,21.517-12.532a2.03,2.03,0,0,0,1.158-2.026c-.03-7.358-.043-14.716.009-22.073.009-1.1-.456-1.417-1.383-1.716a19.084,19.084,0,0,1-13.622-18.293c.062-8.939,7.125-17.27,15.68-18.492a18.891,18.891,0,0,1,9.1,36.566,1.667,1.667,0,0,0-1.417,1.878q.078,11.187.005,22.374a2.157,2.157,0,0,0,1.212,2.155q10.6,6.1,21.139,12.291a2.074,2.074,0,0,0,2.454-.027C302.247,783.814,305.838,781.747,309.486,779.61Zm-59.116,11.927c.586.372.982.647,1.4.886,5.5,3.177,11.015,6.324,16.488,9.543a2.133,2.133,0,0,0,2.449-.02c5.7-3.224,11.425-6.4,17.138-9.6.369-.208.7-.474,1.153-.779-.326-.226-.515-.381-.724-.5-5.973-3.352-11.938-6.72-17.944-10.012a2.255,2.255,0,0,0-1.868.078c-4.667,2.613-9.292,5.307-13.927,7.98C253.2,789.88,251.873,790.659,250.369,791.538Zm23.643,39.779c.472-.216.7-.3.912-.422,5.758-3.307,11.526-6.6,17.245-9.969a2.406,2.406,0,0,0,.953-1.761c.068-6.3.044-12.594.036-18.892a8.4,8.4,0,0,0-.168-1.162,7.444,7.444,0,0,0-.693.3c-5.847,3.354-11.7,6.688-17.507,10.117a2.442,2.442,0,0,0-.834,1.827c-.062,6.146-.039,12.293-.034,18.441C273.923,830.232,273.973,830.665,274.012,831.317ZM246.356,799.5c-.036.82-.073,1.263-.073,1.707,0,5.9.027,11.8-.025,17.7a2.223,2.223,0,0,0,1.29,2.242c5.521,3.124,11,6.314,16.505,9.473.4.234.843.41,1.354.654a7.324,7.324,0,0,0,.112-.8c.005-6.3.036-12.6-.043-18.9a2.43,2.43,0,0,0-1.112-1.672c-3.552-2.133-7.166-4.166-10.76-6.232C251.282,802.341,248.961,801,246.356,799.5Zm23.126-80.523a10.391,10.391,0,0,0-10.487,10.461,10.445,10.445,0,1,0,10.487-10.461ZM188.225,848.637a10.412,10.412,0,1,0,10.3-10.406A10.23,10.23,0,0,0,188.225,848.637Zm152.666-10.406A10.331,10.331,0,0,0,330.4,848.489a10.409,10.409,0,1,0,20.818.121A10.223,10.223,0,0,0,340.891,838.231Zm-9.217-65.45a6.913,6.913,0,0,0-7-7.175,7.731,7.731,0,0,0-8.108,7.289,7.833,7.833,0,0,0,7.171,7.8A7.726,7.726,0,0,0,331.674,772.781ZM276.963,875.108a7.536,7.536,0,1,0-7.558,7.522A7.7,7.7,0,0,0,276.963,875.108ZM210.69,780.676a7.536,7.536,0,1,0-7.561-7.549A7.713,7.713,0,0,0,210.69,780.676Z"
      transform="translate(751.277 621.496)" fill="#116149" fill-rule="evenodd" />
  </g>
</svg>