<svg xmlns="http://www.w3.org/2000/svg" width="208.614" height="187.984" viewBox="0 0 208.614 187.984">
  <g id="Grupo_562" data-name="Grupo 562" transform="translate(-447 -1189)">
    <path id="Trazado_1130" data-name="Trazado 1130"
      d="M0,41.784C.841,41.784,48.234,0,48.234,0L65.341,19.63,16.826,62.536Z"
      transform="translate(508.928 1303.576) rotate(82)" fill="#ceeddb" opacity="0.51" />
    <path id="Trazado_1129" data-name="Trazado 1129"
      d="M360.064,1422.332c.841,0,48.234-41.784,48.234-41.784l17.106,19.63-48.515,42.906Z"
      transform="translate(230.209 -78.018)" fill="#ceeddb" opacity="0.51" />
    <g id="Grupo_306" data-name="Grupo 306" transform="translate(449.702 1189)">
      <path id="Trazado_1115" data-name="Trazado 1115"
        d="M375.991,793.393c4.864-5.373,9.507-10.584,14.254-15.7a62.7,62.7,0,0,1,6.988-6.806c3.2-2.519,7.017-3.724,11.082-4.46a29.488,29.488,0,0,0,8.444-3.052c9.857-5.245,19.6-10.7,29.377-16.1,7.845-4.327,9.98-8.972,8.809-17.807-1.091-8.216-1.807-16.482-2.693-24.725-.546-5.077-1.1-10.152-1.666-15.345.838-.263,1.566-.475,2.284-.719,3.215-1.093,4.693-3.55,4.519-7.492-.177-4.013-1.971-6.658-5.284-7.231a11.245,11.245,0,0,0-4.34.383q-24.273,5.739-48.506,11.63a6.866,6.866,0,0,0-3.33,2.2,19.536,19.536,0,0,1-22.335,5.679c-8.317-3.37-10.07-12.215-3.5-18.306,5.181-4.805,10.541-9.417,15.84-14.095,1.921-1.694,3.8-3.454,5.859-4.966a15.318,15.318,0,0,1,20.051,1.16c3.319,3.132,6.309,6.611,9.61,10.106-1.353,1.2-2.54,2.249-3.933,3.483-2.53-2.758-4.965-5.435-7.426-8.09-5.484-5.916-11.194-6.231-17.264-.889q-9.532,8.39-18.978,16.874c-4.187,3.766-3.148,8.438,2.214,10.276,5.951,2.04,12.191.12,16.531-5.337a7.913,7.913,0,0,1,4.741-2.892c16.49-3.939,32.958-7.971,49.434-11.972,6.465-1.569,12.074.644,14.391,5.921,2.541,5.784,2.218,13.153-3.689,17.158a3.393,3.393,0,0,0-1.04,2.681c.75,7.954,1.712,15.891,2.468,23.845.564,5.932,1.35,11.894,1.239,17.827-.107,5.812-3.463,10.331-8.4,13.2-9.245,5.383-18.725,10.361-28.027,15.65a54.906,54.906,0,0,1-17.423,6.769,14.856,14.856,0,0,0-7.74,4.322c-14.625,15.983-29,32.191-43.456,48.331l-2.433,2.718L301,782.035l16.543-18.742,3.57,2.972,13.1-14.789,3.762,3.339-2.278,3.023ZM361.8,809.4l-43.836-38.728c-3.315,3.776-6.409,7.3-9.6,10.938,14.711,12.988,29.189,25.773,43.81,38.684Zm10.819-12.184-40.369-35.65-7.276,8.271c13.543,11.958,26.886,23.74,40.332,35.611C367.829,802.609,370.136,800.012,372.618,797.217Z"
        transform="translate(-301.004 -653.297)" fill="#116149" fill-rule="evenodd" />
      <path id="Trazado_1116" data-name="Trazado 1116"
        d="M418.749,788.04c13.547-11.967,26.852-23.719,40.332-35.626-2.115-2.446-4.121-4.768-6.23-7.21,1.27-1.2,2.429-2.3,3.734-3.529,5.709,6.464,11.292,12.785,16.983,19.23,1.245-1.023,2.357-1.937,3.616-2.97,5.468,6.231,10.877,12.4,16.439,18.731l-51.574,45.583c-6.76-7.645-13.44-15.2-20.116-22.754-5.293-5.991-10.642-11.933-15.838-18.008a15.514,15.514,0,0,0-7.924-5.384,20.489,20.489,0,0,1-2.114-.825c.613-1.588,1.188-3.075,1.786-4.627,4.392,1.12,8.248,2.834,11.184,6.335C412.114,780.664,415.365,784.205,418.749,788.04Zm23.758,26.911,43.868-38.743-9.607-10.9-43.89,38.726Zm27.275-50.476c-2.51-2.848-4.839-5.49-7.29-8.268l-40.347,35.658,7.258,8.272Z"
        transform="translate(-295.234 -647.932)" fill="#116149" fill-rule="evenodd" />
      <path id="Trazado_1117" data-name="Trazado 1117"
        d="M388.184,708.374c1.754,9.231.255,12.394-7.776,16.609,1.6,9.563.295,12.357-7.414,16.5,0,2.944.535,5.8-.1,8.372-1.779,7.18-9.119,10.555-16.188,7.476-7.882-3.434-15.654-7.13-23.394-10.88a11.179,11.179,0,0,1-6.728-11.061c.171-5.173,2.851-8.714,7.617-10.693.282-.117.546-.277.972-.5-2.27-7.809.209-13.477,7.809-16.613-1.652-9.329-.04-12.746,7.918-16.7-1.3-4.017-1.453-8.009,1.1-11.706a10.522,10.522,0,0,1,6.525-4.55l1.167,4.637c-4.186,2.742-5.646,5.558-4.045,8.8a9.356,9.356,0,0,0,3.926,3.971c7.275,3.634,14.695,6.983,22.055,10.451,2.563,1.208,5.105,1.431,7.456-.353,2.391-1.815,3.183-4.3,2.371-7.515l4.378-1.69C398.779,698.316,395.645,704.582,388.184,708.374Zm-12.035,21a6.008,6.008,0,0,0-3.481-5.05c-8.021-3.848-16.061-7.663-24.182-11.3a6.352,6.352,0,0,0-8.367,3.349,6.539,6.539,0,0,0,2.872,8.586c1.213.679,2.509,1.211,3.769,1.8,6.583,3.093,13.135,6.254,19.759,9.252C371.166,738.121,376.143,735.04,376.149,729.375Zm.454-9.317c3.843.036,6.449-2.016,7.251-5.176a6.565,6.565,0,0,0-3.822-7.453c-7.688-3.663-15.4-7.29-23.156-10.8a7.628,7.628,0,0,0-4.235-.565,6.452,6.452,0,0,0-5.392,5.916,6.8,6.8,0,0,0,4.193,6.662c7.613,3.642,15.266,7.2,22.922,10.751A11.8,11.8,0,0,0,376.6,720.057Zm-38.177,8.987a16.322,16.322,0,0,0-3.066.856,6.2,6.2,0,0,0-3.617,5.764,6.417,6.417,0,0,0,4,6.255q11.209,5.325,22.465,10.545c3.968,1.844,7.857.643,9.506-2.859,1.663-3.526.128-7.249-3.862-9.143q-11-5.224-22.047-10.343A26.72,26.72,0,0,0,338.426,729.045Z"
        transform="translate(-299.452 -652.002)" fill="#116149" fill-rule="evenodd" />
      <path id="Trazado_1118" data-name="Trazado 1118"
        d="M334.048,768.807a3.21,3.21,0,0,1-3.426-3.275A3.454,3.454,0,0,1,334,761.869a3.761,3.761,0,0,1,3.554,3.62A3.5,3.5,0,0,1,334.048,768.807Z"
        transform="translate(-299.206 -646.706)" fill-rule="evenodd" />
      <path id="Trazado_1119" data-name="Trazado 1119"
        d="M458.908,765.45a3.235,3.235,0,0,1-3.347,3.335A3.485,3.485,0,0,1,452,765.315a3.766,3.766,0,0,1,3.46-3.447A3.489,3.489,0,0,1,458.908,765.45Z"
        transform="translate(-291.838 -646.706)" fill-rule="evenodd" />
    </g>
  </g>
</svg>