<svg id="Grupo_289" data-name="Grupo 289" xmlns="http://www.w3.org/2000/svg" width="16.449" height="16.353" viewBox="0 0 16.449 16.353">
  <path id="Trazado_43" data-name="Trazado 43" d="M343.307,197.109l-1.042,1.042q-1.918,1.917-3.835,3.836a.484.484,0,0,1-.376.157q-3.881-.006-7.762,0h-.2c0-.686-.012-1.35.01-2.013a.9.9,0,0,1,.2-.4,7.782,7.782,0,0,1,2.825-2.53,9.889,9.889,0,0,1,3.7-1.112,12.006,12.006,0,0,1,5.229.513C342.472,196.745,342.867,196.93,343.307,197.109Z" transform="translate(-330.093 -185.792)" fill="#5a5a5a"/>
  <path id="Trazado_1110" data-name="Trazado 1110" d="M330.093,197.109l1.042,1.042q1.918,1.917,3.835,3.836a.484.484,0,0,0,.376.157q3.881-.006,7.762,0h.2c0-.686.012-1.35-.01-2.013a.9.9,0,0,0-.2-.395,7.781,7.781,0,0,0-2.824-2.53,9.89,9.89,0,0,0-3.7-1.112,12.005,12.005,0,0,0-5.229.513C330.928,196.745,330.533,196.93,330.093,197.109Z" transform="translate(-326.857 -185.792)" fill="#5a5a5a"/>
  <path id="Trazado_44" data-name="Trazado 44" d="M360.741,143.946a4.088,4.088,0,1,1-4.063-4.093A4.088,4.088,0,0,1,360.741,143.946Z" transform="translate(-348.477 -139.853)" fill="#5a5a5a"/>
</svg>
