<svg id="Слой_x0020_1" xmlns="http://www.w3.org/2000/svg" width="33.235" height="29.594" viewBox="0 0 33.235 29.594">
  <g id="_984154992" transform="translate(0 0)">
    <g id="_1050595296" transform="translate(0 0)">
      <path id="Trazado_1133" data-name="Trazado 1133"
        d="M122.637,101.4c-8.87.375-15.855,6.871-15.8,14.7a13.075,13.075,0,0,0,1.806,6.613l-1.806,7.574a.662.662,0,0,0,.8.68l8.419-1.759a17.849,17.849,0,0,0,7.144,1.5c9.083.141,16.572-6.167,16.864-14.187C140.324,107.961,132.33,101.02,122.637,101.4Zm9.986,22.77a13.609,13.609,0,0,1-9.216,3.4,15.437,15.437,0,0,1-5.79-1.2l-1.142-.516-5.126,1.079,1.062-4.667-.558-1.008a10.088,10.088,0,0,1-1.434-5.159,10.624,10.624,0,0,1,3.851-8.137,13.841,13.841,0,0,1,9.216-3.4,13.552,13.552,0,0,1,9.136,3.4,10.624,10.624,0,0,1,3.851,8.137A10.9,10.9,0,0,1,132.623,124.165Z"
        transform="translate(-106.83 -101.38)" fill="#e5e4e3" fill-rule="evenodd" />
      <path id="Trazado_1134" data-name="Trazado 1134"
        d="M433.863,435.85l-3.214-.821a1.1,1.1,0,0,0-1.142.328l-.8.68a1.542,1.542,0,0,1-1.275.258,18.134,18.134,0,0,1-5.577-4.362.843.843,0,0,1,.159-1.126l.637-.821a.86.86,0,0,0,.133-1.079l-1.354-2.7a1.274,1.274,0,0,0-1.859-.375,4.45,4.45,0,0,0-2.072,2.837c-.266,2.017.717,4.526,4.355,7.481,4.223,3.541,7.649,3.986,9.853,3.471a5.139,5.139,0,0,0,2.868-2.2,1.02,1.02,0,0,0-.717-1.571Z"
        transform="translate(-409.213 -417.99)" fill="#e5e4e3" fill-rule="evenodd" />
    </g>
  </g>
</svg>