<svg xmlns="http://www.w3.org/2000/svg" width="35.25" height="28.076" viewBox="0 0 35.25 28.076">
  <path id="Trazado_1197" data-name="Trazado 1197"
    d="M350.47,431.9v6.214c-.048.733-.089,1.467-.144,2.2a21.414,21.414,0,0,1-.678,4.771,4.434,4.434,0,0,1-3.97,3.5c-2.228.2-4.464.344-6.7.383q-5.5.1-11.011.009c-2.555-.044-5.11-.215-7.661-.4a6.035,6.035,0,0,1-2.02-.57c-1.427-.652-2.057-2.041-2.444-3.623a25.515,25.515,0,0,1-.481-4.068c-.058-.732-.1-1.465-.145-2.2V431.9c.048-.745.088-1.491.145-2.234a21.509,21.509,0,0,1,.671-4.732,4.474,4.474,0,0,1,3.55-3.447,20.677,20.677,0,0,1,2.943-.283c2.922-.107,5.845-.21,8.768-.247,4.644-.058,9.287.041,13.923.388a5.2,5.2,0,0,1,2.314.663,5.359,5.359,0,0,1,2.314,3.629,25.681,25.681,0,0,1,.479,4.067C350.384,430.439,350.423,431.172,350.47,431.9ZM338.749,434.6l-9.529-5.649v11.26Z"
    transform="translate(-315.22 -420.945)" fill="#e5e4e3" fill-rule="evenodd" />
</svg>